<svg id="svg" version="1.1" xmlns="http://www.w3.org/2000/svg" xmlns:xlink="http://www.w3.org/1999/xlink" width="400" height="400" viewBox="0, 0, 400,400"><g id="svgg"><path id="path0" d="M121.300 19.087 C 121.905 19.178,122.895 19.178,123.500 19.087 C 124.105 18.995,123.610 18.920,122.400 18.920 C 121.190 18.920,120.695 18.995,121.300 19.087 M144.184 19.175 C 144.459 19.619,146.000 19.569,146.000 19.115 C 146.000 18.942,145.539 18.800,144.976 18.800 C 144.413 18.800,144.057 18.969,144.184 19.175 M91.600 34.400 C 91.600 45.973,91.709 49.200,92.100 49.200 C 92.493 49.200,92.575 46.104,92.481 34.736 C 92.386 23.214,92.467 20.204,92.881 19.942 C 93.242 19.712,93.126 19.610,92.500 19.606 L 91.600 19.600 91.600 34.400 M102.900 19.891 C 103.725 19.978,105.075 19.978,105.900 19.891 C 106.725 19.805,106.050 19.734,104.400 19.734 C 102.750 19.734,102.075 19.805,102.900 19.891 M167.910 19.936 C 168.298 20.182,168.393 21.921,168.310 27.230 L 168.200 34.200 136.700 34.302 L 105.200 34.405 105.200 41.602 L 105.200 48.800 111.391 48.800 L 117.582 48.800 117.691 55.900 L 117.800 63.000 124.091 63.110 L 130.382 63.220 130.491 70.310 L 130.600 77.400 136.800 77.600 L 143.000 77.800 143.109 84.902 L 143.218 92.005 174.709 91.902 L 206.200 91.800 206.305 77.510 L 206.410 63.220 200.105 63.110 L 193.800 63.000 193.691 55.900 L 193.582 48.800 181.623 48.800 C 175.047 48.800,169.381 48.691,169.033 48.557 C 168.283 48.269,168.062 34.656,168.800 34.200 C 169.043 34.050,169.200 31.129,169.200 26.776 L 169.200 19.600 168.300 19.606 C 167.687 19.610,167.563 19.715,167.910 19.936 M167.691 41.900 L 167.800 49.000 180.500 49.106 L 193.200 49.211 193.200 56.406 L 193.200 63.600 199.300 63.601 L 205.400 63.602 205.403 77.101 C 205.406 88.751,205.324 90.637,204.803 90.867 C 204.472 91.014,190.569 91.151,173.909 91.171 L 143.618 91.208 143.509 84.104 L 143.400 77.000 137.400 76.800 L 131.400 76.600 131.200 69.867 C 130.976 62.314,130.830 61.956,128.026 62.053 C 127.242 62.080,124.845 62.079,122.700 62.051 L 118.800 62.000 118.800 55.462 C 118.800 47.285,119.007 47.578,113.393 47.810 C 111.197 47.901,108.635 47.870,107.700 47.742 L 106.000 47.509 106.000 41.155 L 106.000 34.800 136.791 34.800 L 167.582 34.800 167.691 41.900 M104.619 51.700 C 104.452 52.085,104.452 52.715,104.619 53.100 C 105.003 53.981,105.374 52.881,105.091 51.700 C 104.932 51.033,104.909 51.033,104.619 51.700 M104.400 57.400 C 104.400 58.830,104.569 60.000,104.775 60.000 C 104.981 60.000,105.150 58.830,105.150 57.400 C 105.150 55.970,104.981 54.800,104.775 54.800 C 104.569 54.800,104.400 55.970,104.400 57.400 M230.800 63.208 C 230.800 63.450,231.247 63.508,231.900 63.351 C 233.470 62.975,233.523 62.800,232.067 62.800 C 231.370 62.800,230.800 62.983,230.800 63.208 M244.703 74.300 C 244.948 76.872,245.105 77.082,245.154 74.900 C 245.179 73.745,245.056 72.800,244.880 72.800 C 244.704 72.800,244.625 73.475,244.703 74.300 M104.578 76.835 C 104.431 77.074,104.510 77.470,104.755 77.715 C 105.082 78.042,105.200 77.926,105.200 77.280 C 105.200 76.314,104.992 76.165,104.578 76.835 M231.600 84.976 C 231.600 89.659,231.748 92.400,232.000 92.400 C 232.252 92.400,232.400 89.741,232.400 85.224 C 232.400 80.871,232.243 77.950,232.000 77.800 C 231.739 77.639,231.600 80.129,231.600 84.976 M117.905 106.283 C 118.402 106.379,119.122 106.375,119.505 106.275 C 119.887 106.175,119.480 106.096,118.600 106.101 C 117.720 106.105,117.407 106.187,117.905 106.283 M258.520 106.298 C 260.455 106.372,263.515 106.371,265.320 106.297 C 267.124 106.223,265.540 106.163,261.800 106.164 C 258.060 106.164,256.584 106.225,258.520 106.298 M294.717 113.200 C 294.786 117.432,294.993 120.400,295.217 120.400 C 295.447 120.400,295.600 117.514,295.600 113.200 C 295.600 107.707,295.481 106.000,295.100 106.000 C 294.714 105.999,294.627 107.643,294.717 113.200 M168.309 113.700 L 168.200 120.600 142.900 120.703 L 117.600 120.806 117.600 127.757 L 117.600 134.708 105.009 135.003 L 92.418 135.298 92.309 142.349 L 92.200 149.400 86.100 149.510 L 80.000 149.621 80.000 156.178 C 80.000 164.830,80.704 164.000,73.366 164.000 L 67.218 164.000 67.109 171.100 L 67.000 178.200 60.700 178.310 L 54.400 178.420 54.401 211.110 C 54.401 229.090,54.520 248.525,54.665 254.300 L 54.928 264.800 61.059 264.800 L 67.190 264.800 67.295 279.100 L 67.400 293.400 73.700 293.510 L 80.000 293.620 80.000 308.000 L 80.000 322.380 86.300 322.490 L 92.600 322.600 92.670 329.200 C 92.709 332.830,92.754 336.022,92.770 336.294 C 92.793 336.673,95.720 336.813,105.300 336.894 L 117.800 337.000 118.000 344.000 L 118.200 351.000 130.700 351.106 L 143.200 351.211 143.200 358.406 L 143.200 365.600 200.000 365.600 L 256.800 365.600 256.800 358.406 L 256.800 351.211 269.300 351.106 L 281.800 351.000 282.000 344.000 L 282.200 337.000 294.700 336.894 L 307.200 336.789 307.200 329.604 L 307.200 322.420 313.500 322.310 L 319.800 322.200 319.905 307.910 L 320.010 293.621 326.105 293.510 L 332.200 293.400 332.400 279.200 L 332.600 265.000 338.800 264.800 L 345.000 264.600 345.000 221.600 L 345.000 178.600 338.900 178.490 C 335.545 178.429,332.783 178.339,332.762 178.290 C 332.742 178.240,332.650 171.810,332.559 164.000 L 332.393 149.800 326.196 149.690 L 320.000 149.580 320.000 142.390 L 320.000 135.200 301.209 135.200 L 282.418 135.200 282.309 128.100 L 282.200 121.000 256.934 120.897 L 231.668 120.794 231.534 127.578 C 231.454 131.625,231.230 134.532,230.978 134.783 C 230.687 135.073,220.889 135.173,199.578 135.102 L 168.600 135.000 168.490 128.030 C 168.421 123.657,168.533 120.907,168.790 120.650 C 169.329 120.111,169.348 106.800,168.809 106.800 C 168.575 106.800,168.375 109.553,168.309 113.700 M78.854 121.700 C 78.901 122.801,78.937 122.847,79.095 122.000 C 79.197 121.450,79.488 120.868,79.740 120.706 C 80.036 120.517,79.950 120.410,79.500 120.406 C 78.965 120.401,78.813 120.706,78.854 121.700 M103.700 120.697 C 105.405 120.772,108.195 120.772,109.900 120.697 C 111.605 120.622,110.210 120.561,106.800 120.561 C 103.390 120.561,101.995 120.622,103.700 120.697 M167.600 128.400 L 167.600 135.600 198.900 135.663 C 233.584 135.734,231.646 135.767,232.076 135.090 C 232.248 134.821,232.391 131.585,232.394 127.900 L 232.400 121.200 256.791 121.200 L 281.182 121.200 281.291 128.300 L 281.400 135.400 294.095 135.506 L 306.790 135.611 306.895 149.906 L 307.000 164.200 313.300 164.310 L 319.600 164.420 319.600 173.066 C 319.600 180.831,319.529 181.766,318.900 182.243 C 318.234 182.749,318.234 182.775,318.906 182.787 C 319.567 182.799,319.605 183.559,319.506 194.700 L 319.400 206.600 313.200 206.800 L 307.000 207.000 306.891 214.100 L 306.782 221.200 300.634 221.200 C 295.396 221.200,294.450 221.294,294.243 221.833 C 294.109 222.181,294.000 228.656,294.000 236.222 L 294.000 249.979 287.900 250.090 L 281.800 250.200 281.600 257.200 L 281.400 264.200 275.675 264.272 C 268.310 264.365,268.844 263.777,268.709 271.941 L 268.600 278.600 262.600 278.800 L 256.600 279.000 256.491 286.100 L 256.382 293.200 243.834 293.200 C 232.760 293.200,231.257 293.274,231.043 293.833 C 230.909 294.181,230.800 297.421,230.800 301.033 L 230.800 307.600 214.195 307.600 C 201.607 307.600,197.394 307.479,196.782 307.100 C 196.147 306.706,195.911 306.704,195.670 307.091 C 195.451 307.443,193.279 307.612,187.982 307.691 L 180.600 307.800 180.491 314.900 L 180.382 322.000 155.600 322.000 L 130.818 322.000 130.709 314.900 L 130.600 307.800 111.900 307.696 L 93.200 307.592 93.200 300.876 C 93.200 292.578,93.757 293.200,86.329 293.200 L 80.418 293.200 80.309 286.100 L 80.200 279.000 74.200 278.800 L 68.200 278.600 67.800 264.400 L 67.400 250.200 61.532 250.089 L 55.665 249.979 55.532 247.089 C 55.460 245.500,55.449 229.485,55.509 211.500 L 55.618 178.800 61.601 178.800 L 67.585 178.800 67.829 177.828 C 67.963 177.293,68.011 174.053,67.936 170.627 L 67.800 164.399 73.620 164.400 C 80.943 164.400,80.400 165.015,80.400 156.720 L 80.400 150.000 86.320 150.000 C 93.756 150.000,93.200 150.617,93.200 142.364 L 93.200 135.689 105.613 135.393 C 120.327 135.043,118.800 135.966,118.800 127.426 L 118.800 121.200 143.200 121.200 L 167.600 121.200 167.600 128.400 M290.060 143.980 C 290.232 144.496,290.781 144.588,290.830 144.110 C 290.847 143.951,290.644 143.748,290.380 143.660 C 290.116 143.572,289.972 143.716,290.060 143.980 M152.656 144.278 C 152.205 144.728,152.381 145.200,153.000 145.200 C 153.330 145.200,153.600 145.031,153.600 144.824 C 153.600 144.319,152.975 143.958,152.656 144.278 M358.000 221.624 C 358.000 260.204,358.134 279.564,358.400 279.400 C 358.664 279.237,358.800 259.463,358.800 221.376 C 358.800 183.125,358.665 163.600,358.400 163.600 C 358.135 163.600,358.000 183.208,358.000 221.624 M41.442 189.434 C 41.308 189.783,41.374 190.368,41.587 190.734 C 41.896 191.264,41.978 191.134,41.988 190.100 C 42.001 188.677,41.818 188.454,41.442 189.434 M307.675 195.225 C 307.771 195.514,308.086 195.829,308.375 195.925 C 308.675 196.025,308.825 195.875,308.725 195.575 C 308.629 195.286,308.314 194.971,308.025 194.875 C 307.725 194.775,307.575 194.925,307.675 195.225 M160.800 272.800 C 161.576 273.301,162.000 273.301,162.000 272.800 C 162.000 272.580,161.595 272.403,161.100 272.406 C 160.372 272.411,160.315 272.486,160.800 272.800 M91.600 344.176 C 91.600 348.396,91.758 351.250,92.000 351.400 C 92.261 351.561,92.400 349.137,92.400 344.424 C 92.400 339.875,92.252 337.200,92.000 337.200 C 91.749 337.200,91.600 339.792,91.600 344.176 M307.700 343.800 C 307.706 347.430,307.866 350.400,308.055 350.400 C 308.245 350.400,308.400 347.430,308.400 343.800 C 308.400 340.170,308.240 337.200,308.045 337.200 C 307.849 337.200,307.694 340.170,307.700 343.800 M294.800 358.824 C 294.800 363.537,294.939 365.961,295.200 365.800 C 295.442 365.650,295.600 362.796,295.600 358.576 C 295.600 354.192,295.451 351.600,295.200 351.600 C 294.948 351.600,294.800 354.275,294.800 358.824 M124.300 366.282 C 124.795 366.378,125.605 366.378,126.100 366.282 C 126.595 366.187,126.190 366.109,125.200 366.109 C 124.210 366.109,123.805 366.187,124.300 366.282 M155.900 381.089 C 156.615 381.178,157.785 381.178,158.500 381.089 C 159.215 381.001,158.630 380.928,157.200 380.928 C 155.770 380.928,155.185 381.001,155.900 381.089 M206.500 381.091 C 207.325 381.178,208.675 381.178,209.500 381.091 C 210.325 381.005,209.650 380.934,208.000 380.934 C 206.350 380.934,205.675 381.005,206.500 381.091 M212.300 381.082 C 212.795 381.178,213.605 381.178,214.100 381.082 C 214.595 380.987,214.190 380.909,213.200 380.909 C 212.210 380.909,211.805 380.987,212.300 381.082 M222.500 381.076 C 222.885 381.176,223.515 381.176,223.900 381.076 C 224.285 380.975,223.970 380.893,223.200 380.893 C 222.430 380.893,222.115 380.975,222.500 381.076 " stroke="none" fill="#97bc4c" fill-rule="evenodd"></path><path id="path1" d="M92.900 19.898 C 92.372 20.076,92.142 46.398,92.652 48.300 C 92.888 49.180,93.018 49.200,98.647 49.200 L 104.400 49.200 104.400 50.424 C 104.400 51.137,104.567 51.544,104.800 51.400 C 105.034 51.255,105.200 51.670,105.200 52.400 C 105.200 53.130,105.034 53.545,104.800 53.400 C 104.580 53.264,104.400 53.523,104.400 53.976 C 104.400 54.429,104.569 54.800,104.775 54.800 C 104.981 54.800,105.150 55.970,105.150 57.400 C 105.150 58.830,104.981 60.000,104.775 60.000 C 104.554 60.000,104.400 63.449,104.400 68.424 C 104.400 73.937,104.538 76.762,104.800 76.600 C 105.020 76.464,105.200 76.723,105.200 77.176 C 105.200 77.971,105.409 78.000,111.200 78.000 L 117.200 78.000 117.200 85.200 L 117.200 92.400 130.000 92.400 L 142.800 92.400 142.800 99.200 L 142.800 106.000 134.500 106.056 C 129.935 106.087,125.495 106.068,124.634 106.015 C 123.773 105.962,121.740 106.043,120.117 106.195 L 117.165 106.472 117.282 113.436 L 117.400 120.401 115.000 120.498 C 113.680 120.551,105.220 120.596,96.200 120.597 L 79.800 120.600 79.691 127.700 L 79.582 134.800 73.191 134.800 L 66.800 134.800 66.800 142.000 L 66.800 149.200 60.400 149.200 L 54.000 149.200 54.000 156.400 L 54.000 163.600 48.500 163.605 C 45.475 163.608,42.595 163.719,42.100 163.852 L 41.200 164.093 41.200 174.670 C 41.200 181.620,41.337 185.162,41.600 185.000 C 41.820 184.864,42.000 185.044,42.000 185.400 C 42.000 185.756,41.820 185.936,41.600 185.800 C 41.352 185.647,41.202 186.361,41.206 187.676 C 41.211 189.195,41.323 189.629,41.600 189.200 C 41.891 188.750,41.988 188.950,41.988 190.000 C 41.988 191.050,41.891 191.250,41.600 190.800 C 41.348 190.410,41.210 203.342,41.206 227.700 L 41.200 265.200 47.600 265.200 L 54.000 265.200 54.000 286.800 L 54.000 308.400 60.100 308.447 C 63.455 308.473,66.335 308.473,66.500 308.447 C 66.665 308.421,66.779 308.535,66.753 308.700 C 66.727 308.865,66.727 312.105,66.753 315.900 L 66.800 322.800 73.200 322.800 L 79.600 322.800 79.600 330.000 L 79.600 337.200 86.000 337.200 L 92.400 337.200 92.400 344.400 L 92.400 351.600 98.400 351.600 L 104.400 351.600 104.400 358.800 L 104.400 366.000 123.600 366.000 L 142.800 366.000 142.800 373.200 L 142.800 380.400 200.176 380.400 C 243.115 380.400,257.625 380.284,257.838 379.938 C 258.015 379.652,257.948 379.585,257.662 379.762 C 257.319 379.973,257.200 378.231,257.200 373.024 L 257.200 366.000 276.000 366.000 L 294.800 366.000 294.800 358.800 L 294.800 351.600 301.200 351.600 L 307.600 351.600 307.600 344.400 L 307.600 337.200 314.000 337.200 L 320.400 337.200 320.400 330.576 C 320.400 325.394,320.509 324.014,320.900 324.235 C 321.300 324.461,321.300 324.410,320.900 323.979 C 319.913 322.915,320.489 322.800,326.800 322.800 L 333.200 322.800 333.200 315.600 L 333.200 308.400 339.600 308.400 L 346.000 308.400 346.000 294.000 L 346.000 279.600 352.000 279.600 L 358.000 279.600 358.000 221.600 L 358.000 163.600 352.000 163.600 L 346.000 163.600 346.000 156.647 C 346.000 148.411,346.787 149.213,338.700 149.205 L 333.200 149.200 333.200 142.243 C 333.200 134.005,333.952 134.800,326.167 134.800 L 320.400 134.800 320.400 127.600 L 320.400 120.400 307.609 120.400 L 294.818 120.400 294.709 113.300 L 294.600 106.200 264.000 106.114 C 247.170 106.067,232.804 106.122,232.074 106.237 L 230.749 106.446 230.874 113.423 L 231.000 120.401 218.900 120.401 L 206.800 120.400 206.800 113.600 L 206.800 106.800 213.200 106.800 L 219.600 106.800 219.600 99.600 L 219.600 92.400 225.600 92.400 L 231.600 92.400 231.599 85.100 L 231.599 77.800 237.975 77.919 L 244.352 78.038 244.276 70.519 L 244.200 63.000 239.000 62.923 C 236.140 62.881,233.117 63.025,232.282 63.243 L 230.764 63.641 230.882 70.421 L 231.000 77.201 225.200 77.201 L 219.400 77.201 219.517 70.252 L 219.635 63.302 218.717 63.057 C 218.213 62.922,215.280 62.809,212.200 62.806 L 206.600 62.801 206.717 55.852 L 206.835 48.902 205.917 48.657 C 205.413 48.522,202.480 48.409,199.400 48.406 L 193.800 48.401 193.917 41.195 L 194.035 33.989 181.317 34.094 L 168.600 34.200 168.490 41.170 C 168.407 46.479,168.502 48.218,168.890 48.464 C 169.171 48.642,174.841 48.791,181.491 48.794 L 193.582 48.800 193.691 55.900 L 193.800 63.000 200.105 63.110 L 206.410 63.220 206.305 77.510 L 206.200 91.800 174.709 91.902 L 143.218 92.005 143.109 84.902 L 143.000 77.800 136.800 77.600 L 130.600 77.400 130.491 70.310 L 130.382 63.220 124.091 63.110 L 117.800 63.000 117.691 55.900 L 117.582 48.800 111.391 48.800 L 105.200 48.800 105.200 41.602 L 105.200 34.405 136.700 34.302 L 168.200 34.200 168.310 27.230 C 168.393 21.922,168.298 20.181,167.910 19.933 C 167.404 19.608,93.858 19.574,92.900 19.898 M193.200 113.600 L 193.200 120.400 185.300 120.449 C 180.955 120.475,175.420 120.520,173.000 120.549 L 168.600 120.600 168.600 127.800 L 168.600 135.000 199.578 135.102 C 220.889 135.173,230.687 135.073,230.978 134.783 C 231.230 134.532,231.454 131.625,231.534 127.578 L 231.668 120.794 256.934 120.897 L 282.200 121.000 282.309 128.100 L 282.418 135.200 301.209 135.200 L 320.000 135.200 320.000 142.390 L 320.000 149.580 326.196 149.690 L 332.393 149.800 332.559 164.000 C 332.650 171.810,332.742 178.240,332.762 178.290 C 332.783 178.339,335.545 178.429,338.900 178.490 L 345.000 178.600 345.000 221.600 L 345.000 264.600 338.800 264.800 L 332.600 265.000 332.400 279.200 L 332.200 293.400 326.105 293.510 L 320.010 293.621 319.905 307.910 L 319.800 322.200 313.500 322.310 L 307.200 322.420 307.200 329.604 L 307.200 336.789 294.700 336.894 L 282.200 337.000 282.000 344.000 L 281.800 351.000 269.300 351.106 L 256.800 351.211 256.800 358.406 L 256.800 365.600 200.000 365.600 L 143.200 365.600 143.200 358.406 L 143.200 351.211 130.700 351.106 L 118.200 351.000 118.000 344.000 L 117.800 337.000 105.300 336.894 C 95.720 336.813,92.793 336.673,92.770 336.294 C 92.754 336.022,92.709 332.830,92.670 329.200 L 92.600 322.600 86.300 322.490 L 80.000 322.380 80.000 308.000 L 80.000 293.620 73.700 293.510 L 67.400 293.400 67.295 279.100 L 67.190 264.800 61.059 264.800 L 54.928 264.800 54.665 254.300 C 54.520 248.525,54.401 229.090,54.401 211.110 L 54.400 178.420 60.700 178.310 L 67.000 178.200 67.109 171.100 L 67.218 164.000 73.366 164.000 C 80.704 164.000,80.000 164.830,80.000 156.178 L 80.000 149.621 86.100 149.510 L 92.200 149.400 92.309 142.349 L 92.418 135.298 105.009 135.003 L 117.600 134.708 117.600 127.757 L 117.600 120.806 142.900 120.703 L 168.200 120.600 168.309 113.700 L 168.419 106.800 180.809 106.800 L 193.200 106.800 193.200 113.600 M124.300 366.682 C 124.795 366.778,125.605 366.778,126.100 366.682 C 126.595 366.587,126.190 366.509,125.200 366.509 C 124.210 366.509,123.805 366.587,124.300 366.682 " stroke="none" fill="#1c1c1c" fill-rule="evenodd"></path><path id="path2" d="M194.028 40.876 C 194.044 44.684,194.197 47.440,194.369 47.000 C 194.797 45.905,194.776 34.433,194.346 34.167 C 194.156 34.049,194.013 37.068,194.028 40.876 M294.251 105.683 C 294.525 106.127,295.600 106.080,295.600 105.625 C 295.600 105.419,295.252 105.276,294.828 105.308 C 294.403 105.340,294.144 105.509,294.251 105.683 M192.454 113.200 C 192.442 117.026,192.588 119.600,192.817 119.600 C 193.045 119.600,193.200 117.012,193.200 113.200 C 193.200 109.631,193.039 106.800,192.837 106.800 C 192.635 106.800,192.465 109.645,192.454 113.200 M206.800 108.024 C 206.800 108.737,206.967 109.144,207.200 109.000 C 207.420 108.864,207.600 108.313,207.600 107.776 C 207.600 107.239,207.420 106.800,207.200 106.800 C 206.980 106.800,206.800 107.351,206.800 108.024 M320.497 126.800 C 320.484 129.980,320.550 130.389,320.897 129.305 C 321.181 128.422,321.185 127.211,320.912 125.505 L 320.511 123.000 320.497 126.800 M105.710 135.521 C 105.363 135.744,105.188 137.807,105.110 142.617 L 105.000 149.400 98.800 149.600 L 92.600 149.800 92.400 156.800 L 92.200 163.800 86.100 163.910 L 80.000 164.021 80.000 185.610 L 80.000 207.200 86.200 207.200 C 90.879 207.200,92.407 207.077,92.427 206.700 C 92.441 206.425,92.438 203.410,92.419 200.000 C 92.376 192.216,91.807 192.845,99.017 192.711 L 105.000 192.600 105.200 185.600 L 105.400 178.600 111.491 178.490 L 117.582 178.379 117.691 171.290 L 117.800 164.200 130.400 164.000 L 143.000 163.800 143.000 149.600 L 143.000 135.400 124.600 135.304 C 114.480 135.251,105.980 135.349,105.710 135.521 M66.282 135.900 C 66.192 136.065,66.244 137.640,66.398 139.400 L 66.679 142.600 66.740 139.100 C 66.796 135.844,66.696 135.147,66.282 135.900 M66.134 147.027 C 66.002 147.372,66.098 147.858,66.347 148.107 C 66.684 148.444,66.800 148.284,66.800 147.480 C 66.800 146.277,66.501 146.073,66.134 147.027 M56.200 148.800 C 56.064 149.020,56.313 149.200,56.753 149.200 C 57.193 149.200,57.664 149.020,57.800 148.800 C 57.936 148.580,57.687 148.400,57.247 148.400 C 56.807 148.400,56.336 148.580,56.200 148.800 M344.400 148.800 C 344.400 149.020,344.760 149.200,345.200 149.200 C 345.640 149.200,346.000 149.020,346.000 148.800 C 346.000 148.580,345.640 148.400,345.200 148.400 C 344.760 148.400,344.400 148.580,344.400 148.800 M231.777 150.115 C 231.668 150.399,231.629 153.594,231.690 157.215 L 231.800 163.800 244.200 163.800 L 256.600 163.800 256.709 156.700 L 256.818 149.600 244.397 149.600 C 234.631 149.600,231.933 149.710,231.777 150.115 M43.600 163.200 C 43.600 163.420,44.140 163.600,44.800 163.600 C 45.460 163.600,46.000 163.420,46.000 163.200 C 46.000 162.980,45.460 162.800,44.800 162.800 C 44.140 162.800,43.600 162.980,43.600 163.200 M48.888 163.272 C 48.510 163.421,49.325 163.556,50.700 163.572 C 52.182 163.589,53.200 163.431,53.200 163.184 C 53.200 162.740,50.075 162.804,48.888 163.272 M349.842 163.268 C 349.955 163.451,350.427 163.600,350.890 163.600 C 351.354 163.600,351.610 163.476,351.459 163.325 C 351.060 162.927,349.599 162.875,349.842 163.268 M355.400 163.211 C 354.381 163.480,354.486 163.519,356.100 163.464 C 357.145 163.429,358.000 163.265,358.000 163.100 C 358.000 162.740,357.030 162.781,355.400 163.211 M98.000 182.373 C 98.000 182.893,96.646 183.269,95.859 182.967 C 95.499 182.829,95.304 182.555,95.426 182.358 C 95.720 181.882,98.000 181.896,98.000 182.373 M67.291 228.700 L 67.400 235.800 79.900 235.906 L 92.400 236.011 92.400 228.806 L 92.400 221.600 79.791 221.600 L 67.182 221.600 67.291 228.700 M320.464 326.918 C 320.399 328.496,320.432 329.700,320.537 329.594 C 320.812 329.315,321.040 324.507,320.791 324.257 C 320.676 324.142,320.529 325.340,320.464 326.918 M115.800 366.400 C 116.916 366.880,118.096 366.880,117.800 366.400 C 117.664 366.180,116.978 366.013,116.276 366.028 C 115.200 366.052,115.126 366.110,115.800 366.400 M119.600 366.400 C 119.600 366.620,120.500 366.800,121.600 366.800 C 122.700 366.800,123.600 366.620,123.600 366.400 C 123.600 366.180,122.700 366.000,121.600 366.000 C 120.500 366.000,119.600 366.180,119.600 366.400 M127.016 366.374 C 126.838 366.663,127.849 366.800,130.153 366.800 C 134.575 366.800,134.953 366.188,130.615 366.052 C 128.575 365.988,127.177 366.113,127.016 366.374 M257.487 366.300 C 257.209 366.821,257.119 371.012,257.391 370.741 C 257.693 370.440,258.106 366.000,257.831 366.000 C 257.730 366.000,257.575 366.135,257.487 366.300 M265.023 366.438 C 265.303 366.890,269.479 366.919,269.756 366.471 C 269.868 366.290,268.799 366.127,267.380 366.109 C 265.933 366.090,264.898 366.235,265.023 366.438 M271.000 366.400 C 271.136 366.620,271.507 366.800,271.824 366.800 C 272.141 366.800,272.400 366.620,272.400 366.400 C 272.400 366.180,272.029 366.000,271.576 366.000 C 271.123 366.000,270.864 366.180,271.000 366.400 M272.800 366.315 C 272.800 366.492,273.610 366.661,274.600 366.689 C 275.590 366.717,276.400 366.603,276.400 366.435 C 276.400 366.267,275.590 366.099,274.600 366.062 C 273.610 366.024,272.800 366.138,272.800 366.315 M277.431 366.350 C 277.312 366.543,278.066 366.618,279.107 366.517 C 281.861 366.250,282.094 366.068,279.724 366.032 C 278.582 366.014,277.550 366.158,277.431 366.350 M257.200 376.224 C 257.200 378.327,257.356 379.951,257.547 379.833 C 258.063 379.514,258.133 372.400,257.620 372.400 C 257.356 372.400,257.200 373.818,257.200 376.224 M145.200 380.800 C 145.200 381.020,145.560 381.200,146.000 381.200 C 146.440 381.200,146.800 381.020,146.800 380.800 C 146.800 380.580,146.440 380.400,146.000 380.400 C 145.560 380.400,145.200 380.580,145.200 380.800 M147.366 380.745 C 147.583 381.096,154.371 380.962,154.734 380.599 C 154.844 380.490,153.183 380.400,151.043 380.400 C 148.903 380.400,147.249 380.555,147.366 380.745 M161.000 380.824 C 163.056 381.258,185.200 381.205,185.200 380.765 C 185.200 380.583,179.395 380.446,172.300 380.460 C 164.220 380.476,159.998 380.612,161.000 380.824 M185.778 380.764 C 186.026 381.166,187.018 381.115,187.455 380.678 C 187.608 380.525,187.243 380.400,186.643 380.400 C 186.043 380.400,185.654 380.564,185.778 380.764 M189.300 380.676 C 189.685 380.776,190.315 380.776,190.700 380.676 C 191.085 380.575,190.770 380.493,190.000 380.493 C 189.230 380.493,188.915 380.575,189.300 380.676 M195.056 380.891 C 195.161 381.061,196.077 381.200,197.090 381.200 C 198.104 381.200,198.798 381.065,198.633 380.900 C 198.235 380.502,194.810 380.493,195.056 380.891 M199.600 380.800 C 199.600 381.029,200.800 381.200,202.400 381.200 C 204.000 381.200,205.200 381.029,205.200 380.800 C 205.200 380.571,204.000 380.400,202.400 380.400 C 200.800 380.400,199.600 380.571,199.600 380.800 M205.633 380.560 C 205.977 380.890,218.281 381.101,220.200 380.810 C 221.511 380.611,219.319 380.488,213.833 380.453 C 209.232 380.424,205.542 380.472,205.633 380.560 M224.400 380.800 C 224.400 381.283,246.091 381.283,247.600 380.800 C 248.153 380.623,243.188 380.462,236.500 380.440 C 228.673 380.414,224.400 380.541,224.400 380.800 M249.120 380.880 C 249.493 381.253,249.707 381.253,250.080 380.880 C 250.453 380.507,250.347 380.400,249.600 380.400 C 248.853 380.400,248.747 380.507,249.120 380.880 M250.800 380.764 C 250.800 381.156,253.510 381.270,253.745 380.887 C 253.842 380.729,253.219 380.568,252.360 380.529 C 251.502 380.489,250.800 380.595,250.800 380.764 " stroke="none" fill="#fbfbf9" fill-rule="evenodd"></path><path id="path3" d="M92.400 19.186 C 92.400 19.467,100.758 19.600,118.424 19.600 C 132.737 19.600,144.359 19.457,144.252 19.283 C 143.944 18.787,92.400 18.690,92.400 19.186 M146.000 19.210 C 146.000 19.454,150.201 19.600,157.200 19.600 C 163.360 19.600,168.400 19.453,168.400 19.273 C 168.400 19.093,163.360 18.918,157.200 18.884 C 150.158 18.844,146.000 18.966,146.000 19.210 M169.200 33.576 C 169.200 33.865,173.107 33.998,181.500 33.994 C 188.265 33.991,193.592 33.856,193.338 33.694 C 192.566 33.203,169.200 33.089,169.200 33.576 M106.000 41.155 L 106.000 47.509 107.700 47.742 C 108.635 47.870,111.197 47.901,113.393 47.810 C 119.007 47.578,118.800 47.285,118.800 55.462 L 118.800 62.000 122.700 62.051 C 124.845 62.079,127.242 62.080,128.026 62.053 C 130.830 61.956,130.976 62.314,131.200 69.867 L 131.400 76.600 137.400 76.800 L 143.400 77.000 143.509 84.104 L 143.618 91.208 173.909 91.171 C 190.569 91.151,204.472 91.014,204.803 90.867 C 205.324 90.637,205.406 88.751,205.403 77.101 L 205.400 63.602 199.300 63.601 L 193.200 63.600 193.200 56.406 L 193.200 49.211 180.500 49.106 L 167.800 49.000 167.691 41.900 L 167.582 34.800 136.791 34.800 L 106.000 34.800 106.000 41.155 M194.217 48.028 C 194.344 48.232,197.237 48.400,200.647 48.400 C 204.730 48.400,206.762 48.262,206.597 47.995 C 206.444 47.748,203.942 47.603,200.167 47.623 C 196.464 47.642,194.079 47.805,194.217 48.028 M206.800 62.432 C 206.800 62.640,209.409 62.800,212.800 62.800 C 216.620 62.800,218.800 62.651,218.800 62.391 C 218.800 62.129,216.647 61.997,212.800 62.023 C 209.439 62.045,206.800 62.225,206.800 62.432 M230.960 62.465 C 230.870 62.611,233.796 62.753,237.462 62.781 C 241.128 62.809,244.277 62.924,244.459 63.037 C 244.642 63.149,244.679 62.949,244.541 62.591 C 244.284 61.922,231.371 61.801,230.960 62.465 M244.457 68.200 C 244.460 70.730,244.615 72.800,244.800 72.800 C 244.985 72.800,245.140 70.730,245.143 68.200 C 245.146 65.670,244.992 63.600,244.800 63.600 C 244.608 63.600,244.454 65.670,244.457 68.200 M244.456 75.580 C 244.425 77.026,244.550 77.993,244.740 77.780 C 244.928 77.571,244.953 76.410,244.797 75.200 L 244.513 73.000 244.456 75.580 M219.600 76.853 C 219.600 77.044,222.120 77.200,225.200 77.200 C 228.280 77.200,230.800 77.037,230.800 76.838 C 230.800 76.638,228.289 76.482,225.200 76.491 C 222.120 76.499,219.600 76.662,219.600 76.853 M142.338 92.601 C 142.193 92.821,142.093 95.701,142.114 99.001 L 142.153 105.000 129.990 105.106 C 123.181 105.165,117.664 105.376,117.456 105.584 C 117.226 105.814,121.789 105.969,129.360 105.988 C 144.340 106.028,142.856 106.858,142.710 98.518 C 142.650 95.043,142.482 92.380,142.338 92.601 M231.797 105.595 C 232.135 106.143,294.256 106.157,294.594 105.609 C 294.750 105.357,283.675 105.214,263.191 105.205 C 241.954 105.195,231.629 105.324,231.797 105.595 M79.800 120.000 C 79.637 120.265,85.929 120.400,98.376 120.400 C 110.659 120.400,117.200 120.261,117.200 120.000 C 117.200 119.739,110.741 119.600,98.624 119.600 C 86.671 119.600,79.959 119.743,79.800 120.000 M169.200 120.000 C 169.200 120.258,173.467 120.400,181.200 120.400 C 188.933 120.400,193.200 120.258,193.200 120.000 C 193.200 119.742,188.933 119.600,181.200 119.600 C 173.467 119.600,169.200 119.742,169.200 120.000 M206.800 120.000 C 206.800 120.258,211.067 120.400,218.800 120.400 C 226.533 120.400,230.800 120.258,230.800 120.000 C 230.800 119.742,226.533 119.600,218.800 119.600 C 211.067 119.600,206.800 119.742,206.800 120.000 M295.600 120.000 C 295.600 120.258,300.008 120.400,308.024 120.400 C 316.204 120.400,320.363 120.263,320.200 120.000 C 320.044 119.748,315.463 119.600,307.776 119.600 C 299.925 119.600,295.600 119.742,295.600 120.000 M79.017 122.700 C 78.676 125.205,78.876 133.600,79.282 133.851 C 79.457 133.959,79.600 131.067,79.600 127.424 C 79.600 120.572,79.460 119.439,79.017 122.700 M118.794 127.500 C 118.791 130.965,118.617 134.070,118.408 134.400 C 118.075 134.927,119.545 135.024,130.514 135.200 L 143.000 135.400 143.000 149.600 L 143.000 163.800 130.400 164.000 L 117.800 164.200 117.691 171.290 L 117.582 178.379 111.491 178.490 L 105.400 178.600 105.200 185.600 L 105.000 192.600 99.017 192.711 C 91.807 192.845,92.376 192.216,92.419 200.000 C 92.438 203.410,92.441 206.425,92.427 206.700 C 92.407 207.077,90.879 207.200,86.200 207.200 L 80.000 207.200 80.000 185.610 L 80.000 164.021 86.100 163.910 L 92.200 163.800 92.400 156.800 L 92.600 149.800 98.800 149.600 L 105.000 149.400 105.110 142.617 C 105.188 137.835,105.365 135.730,105.710 135.480 C 106.036 135.243,105.955 135.204,105.467 135.362 C 105.064 135.493,102.139 135.600,98.967 135.600 L 93.200 135.600 93.200 142.320 C 93.200 150.623,93.758 150.000,86.320 150.000 L 80.400 150.000 80.400 156.720 C 80.400 165.015,80.943 164.400,73.620 164.400 L 67.800 164.399 67.936 170.627 C 68.011 174.053,67.963 177.293,67.829 177.828 L 67.585 178.800 61.601 178.800 L 55.618 178.800 55.509 211.500 C 55.449 229.485,55.460 245.500,55.532 247.089 L 55.665 249.979 61.532 250.089 L 67.400 250.200 67.800 264.400 L 68.200 278.600 74.200 278.800 L 80.200 279.000 80.309 286.100 L 80.418 293.200 86.329 293.200 C 93.757 293.200,93.200 292.578,93.200 300.876 L 93.200 307.592 111.900 307.696 L 130.600 307.800 130.709 314.900 L 130.818 322.000 155.600 322.000 L 180.382 322.000 180.491 314.900 L 180.600 307.800 187.982 307.691 C 193.279 307.612,195.451 307.443,195.670 307.091 C 195.911 306.704,196.147 306.706,196.782 307.100 C 197.394 307.479,201.607 307.600,214.195 307.600 L 230.800 307.600 230.800 301.033 C 230.800 297.421,230.909 294.181,231.043 293.833 C 231.257 293.274,232.760 293.200,243.834 293.200 L 256.382 293.200 256.491 286.100 L 256.600 279.000 262.600 278.800 L 268.600 278.600 268.709 271.941 C 268.844 263.777,268.310 264.365,275.675 264.272 L 281.400 264.200 281.600 257.200 L 281.800 250.200 287.900 250.090 L 294.000 249.979 294.000 236.222 C 294.000 228.656,294.109 222.181,294.243 221.833 C 294.450 221.294,295.396 221.200,300.634 221.200 L 306.782 221.200 306.891 214.100 L 307.000 207.000 313.200 206.800 L 319.400 206.600 319.506 194.700 C 319.605 183.559,319.567 182.799,318.906 182.787 C 318.234 182.775,318.234 182.749,318.900 182.243 C 319.529 181.766,319.600 180.831,319.600 173.066 L 319.600 164.420 313.300 164.310 L 307.000 164.200 306.895 149.906 L 306.790 135.611 294.095 135.506 L 281.400 135.400 281.291 128.300 L 281.182 121.200 256.791 121.200 L 232.400 121.200 232.394 127.900 C 232.391 131.585,232.248 134.821,232.076 135.090 C 231.646 135.767,233.584 135.734,198.900 135.663 L 167.600 135.600 167.600 128.400 L 167.600 121.200 143.200 121.200 L 118.800 121.200 118.794 127.500 M67.000 134.400 C 66.839 134.660,68.870 134.800,72.800 134.800 C 76.730 134.800,78.761 134.660,78.600 134.400 C 78.454 134.164,76.070 134.000,72.800 134.000 C 69.530 134.000,67.146 134.164,67.000 134.400 M320.600 134.400 C 320.441 134.657,321.796 134.800,324.376 134.800 C 326.792 134.800,328.400 134.640,328.400 134.400 C 328.400 134.162,326.875 134.000,324.624 134.000 C 322.537 134.000,320.737 134.179,320.600 134.400 M329.200 134.420 C 329.200 134.673,329.982 134.793,331.162 134.721 C 332.242 134.656,333.041 134.467,332.939 134.301 C 332.651 133.836,329.200 133.946,329.200 134.420 M290.830 144.110 C 290.781 144.588,290.232 144.496,290.060 143.980 C 289.972 143.716,290.116 143.572,290.380 143.660 C 290.644 143.748,290.847 143.951,290.830 144.110 M153.600 144.824 C 153.600 145.031,153.330 145.200,153.000 145.200 C 152.381 145.200,152.205 144.728,152.656 144.278 C 152.975 143.958,153.600 144.319,153.600 144.824 M57.800 148.800 C 57.641 149.058,59.196 149.200,62.176 149.200 C 64.992 149.200,66.800 149.044,66.800 148.800 C 66.800 148.558,65.075 148.400,62.424 148.400 C 59.937 148.400,57.940 148.573,57.800 148.800 M333.800 148.788 C 333.360 148.951,335.565 149.115,338.700 149.153 C 342.441 149.198,344.400 149.077,344.400 148.803 C 344.400 148.322,335.093 148.309,333.800 148.788 M256.709 156.700 L 256.600 163.800 244.200 163.800 L 231.800 163.800 231.690 157.215 C 231.629 153.594,231.668 150.399,231.777 150.115 C 231.933 149.710,234.631 149.600,244.397 149.600 L 256.818 149.600 256.709 156.700 M42.400 163.200 C 43.176 163.701,43.600 163.701,43.600 163.200 C 43.600 162.980,43.195 162.803,42.700 162.806 C 41.972 162.811,41.915 162.886,42.400 163.200 M46.000 163.200 C 46.000 163.680,47.882 163.680,49.000 163.200 C 49.602 162.941,49.330 162.849,47.900 162.828 C 46.855 162.813,46.000 162.980,46.000 163.200 M346.462 163.151 C 346.118 163.371,346.621 163.509,347.862 163.535 C 348.928 163.558,350.034 163.431,350.320 163.253 C 350.635 163.056,350.082 162.905,348.920 162.868 C 347.864 162.835,346.758 162.962,346.462 163.151 M351.400 163.200 C 351.536 163.420,351.997 163.600,352.424 163.600 C 352.851 163.600,353.200 163.420,353.200 163.200 C 353.200 162.980,352.739 162.800,352.176 162.800 C 351.596 162.800,351.260 162.973,351.400 163.200 M354.000 163.131 C 354.000 163.313,354.540 163.382,355.200 163.285 C 355.860 163.188,356.400 163.040,356.400 162.955 C 356.400 162.870,355.860 162.800,355.200 162.800 C 354.540 162.800,354.000 162.949,354.000 163.131 M308.725 195.575 C 308.825 195.875,308.675 196.025,308.375 195.925 C 308.086 195.829,307.771 195.514,307.675 195.225 C 307.575 194.925,307.725 194.775,308.025 194.875 C 308.314 194.971,308.629 195.286,308.725 195.575 M92.400 228.806 L 92.400 236.011 79.900 235.906 L 67.400 235.800 67.291 228.700 L 67.182 221.600 79.791 221.600 L 92.400 221.600 92.400 228.806 M162.000 272.800 C 162.000 273.301,161.576 273.301,160.800 272.800 C 160.315 272.486,160.372 272.411,161.100 272.406 C 161.595 272.403,162.000 272.580,162.000 272.800 M78.962 330.172 C 78.989 333.787,79.144 336.877,79.306 337.039 C 79.468 337.201,79.600 334.243,79.600 330.467 C 79.600 326.690,79.445 323.600,79.256 323.600 C 79.067 323.600,78.935 326.558,78.962 330.172 M142.134 373.173 C 142.178 376.679,142.345 379.679,142.507 379.840 C 142.668 380.001,142.800 377.133,142.800 373.467 C 142.800 369.620,142.643 366.800,142.428 366.800 C 142.210 366.800,142.088 369.452,142.134 373.173 M257.422 370.622 C 257.272 371.425,257.228 372.162,257.326 372.260 C 257.424 372.357,257.627 371.781,257.778 370.978 C 257.928 370.175,257.972 369.438,257.874 369.340 C 257.776 369.243,257.573 369.819,257.422 370.622 M153.200 380.765 C 152.200 380.900,153.781 381.007,156.756 381.005 C 159.986 381.002,161.494 380.890,160.556 380.723 C 158.744 380.401,155.756 380.417,153.200 380.765 M220.400 380.800 C 218.751 381.056,218.717 381.083,220.000 381.117 C 220.770 381.137,222.120 381.005,223.000 380.823 C 225.066 380.396,223.112 380.378,220.400 380.800 " stroke="none" fill="#a8d459" fill-rule="evenodd"></path></g></svg>